<svg width="19" height="18" viewBox="0 0 19 18" fill="none" xmlns="http://www.w3.org/2000/svg">
<g clip-path="url(#clip0_56_260)">
<path d="M11.0292 2.99999C11.6731 3.00059 12.2906 3.24321 12.7459 3.6746C13.2013 4.10599 13.4574 4.69091 13.458 5.30099C13.458 5.4999 13.5414 5.69067 13.6899 5.83132C13.8383 5.97197 14.0397 6.05099 14.2497 6.05099C14.4596 6.05099 14.661 5.97197 14.8095 5.83132C14.9579 5.69067 15.0413 5.4999 15.0413 5.30099V5.24999C15.0413 5.23574 15.0413 5.22299 15.0413 5.20874C15.0149 4.21704 14.5807 3.27433 13.8312 2.58153C13.0818 1.88874 12.0763 1.50065 11.0292 1.49999H10.2913V0.749992C10.2913 0.55108 10.2079 0.360315 10.0595 0.219662C9.911 0.07901 9.70964 -7.62939e-06 9.49967 -7.62939e-06C9.28971 -7.62939e-06 9.08835 0.07901 8.93988 0.219662C8.79142 0.360315 8.70801 0.55108 8.70801 0.749992V1.49999H7.97017C7.01805 1.50096 6.09732 1.82267 5.37255 2.40763C4.64779 2.99258 4.16622 3.80266 4.01394 4.69306C3.86166 5.58346 4.04858 6.49615 4.5413 7.26799C5.03402 8.03983 5.80042 8.62051 6.70351 8.90624L8.70801 9.53999V15H7.97017C7.3262 14.9994 6.70878 14.7568 6.25342 14.3254C5.79807 13.894 5.54197 13.3091 5.54134 12.699C5.54134 12.5001 5.45793 12.3093 5.30947 12.1687C5.161 12.028 4.95964 11.949 4.74967 11.949C4.53971 11.949 4.33835 12.028 4.18988 12.1687C4.04142 12.3093 3.95801 12.5001 3.95801 12.699V12.75C3.95801 12.7642 3.95801 12.777 3.95801 12.7912C3.98443 13.7829 4.41865 14.7257 5.16812 15.4185C5.91759 16.1112 6.92304 16.4993 7.97017 16.5H8.70801V17.25C8.70801 17.4489 8.79142 17.6397 8.93988 17.7803C9.08835 17.921 9.28971 18 9.49967 18C9.70964 18 9.911 17.921 10.0595 17.7803C10.2079 17.6397 10.2913 17.4489 10.2913 17.25V16.5H11.0292C11.9813 16.499 12.902 16.1773 13.6268 15.5924C14.3516 15.0074 14.8331 14.1973 14.9854 13.3069C15.1377 12.4165 14.9508 11.5038 14.458 10.732C13.9653 9.96016 13.1989 9.37948 12.2958 9.09374L10.2913 8.45999V2.99999H11.0292ZM11.7971 10.5157C12.3445 10.6883 12.8091 11.0399 13.1079 11.5074C13.4066 11.975 13.5199 12.528 13.4276 13.0675C13.3352 13.607 13.0431 14.0977 12.6037 14.4518C12.1642 14.8059 11.6061 15.0002 11.0292 15H10.2913V10.0402L11.7971 10.5157ZM8.70801 7.95974L7.20384 7.48424C6.65659 7.31169 6.19202 6.96027 5.89326 6.49288C5.59451 6.02549 5.48107 5.47263 5.57325 4.93325C5.66542 4.39387 5.9572 3.90316 6.39637 3.54895C6.83553 3.19474 7.39341 3.00015 7.97017 2.99999H8.70801V7.95974Z" fill="white"/>
</g>
<defs>
<clipPath id="clip0_56_260">
<rect width="19" height="18" fill="white"/>
</clipPath>
</defs>
</svg>
