<svg width="20" height="19" viewBox="0 0 20 19" fill="none" xmlns="http://www.w3.org/2000/svg">
<g clip-path="url(#clip0_56_256)">
<path d="M19.1663 8.70881H17.4997V7.12548C17.4997 6.91552 17.4119 6.71416 17.2556 6.56569C17.0993 6.41722 16.8873 6.33382 16.6663 6.33382C16.4453 6.33382 16.2334 6.41722 16.0771 6.56569C15.9208 6.71416 15.833 6.91552 15.833 7.12548V8.70881H14.1663C13.9453 8.70881 13.7334 8.79222 13.5771 8.94069C13.4208 9.08915 13.333 9.29051 13.333 9.50048C13.333 9.71044 13.4208 9.9118 13.5771 10.0603C13.7334 10.2087 13.9453 10.2921 14.1663 10.2921H15.833V11.8755C15.833 12.0854 15.9208 12.2868 16.0771 12.4353C16.2334 12.5837 16.4453 12.6671 16.6663 12.6671C16.8873 12.6671 17.0993 12.5837 17.2556 12.4353C17.4119 12.2868 17.4997 12.0854 17.4997 11.8755V10.2921H19.1663C19.3873 10.2921 19.5993 10.2087 19.7556 10.0603C19.9119 9.9118 19.9997 9.71044 19.9997 9.50048C19.9997 9.29051 19.9119 9.08915 19.7556 8.94069C19.5993 8.79222 19.3873 8.70881 19.1663 8.70881Z" fill="white"/>
<path d="M7.5 9.49996C8.48891 9.49996 9.45561 9.22137 10.2779 8.69944C11.1001 8.1775 11.741 7.43565 12.1194 6.5677C12.4978 5.69975 12.5969 4.74469 12.4039 3.82328C12.211 2.90187 11.7348 2.0555 11.0355 1.3912C10.3363 0.7269 9.44536 0.274506 8.47545 0.0912263C7.50555 -0.0920535 6.50021 0.00201233 5.58658 0.361529C4.67295 0.721045 3.89206 1.32986 3.34265 2.111C2.79324 2.89213 2.5 3.81049 2.5 4.74996C2.50132 6.00935 3.02853 7.2168 3.96593 8.10732C4.90332 8.99785 6.17432 9.4987 7.5 9.49996ZM7.5 1.58329C8.15927 1.58329 8.80374 1.76901 9.3519 2.11697C9.90006 2.46493 10.3273 2.95949 10.5796 3.53813C10.8319 4.11676 10.8979 4.75347 10.7693 5.36774C10.6407 5.98202 10.3232 6.54626 9.85702 6.98913C9.39085 7.43199 8.7969 7.73359 8.1503 7.85578C7.5037 7.97796 6.83348 7.91525 6.22439 7.67557C5.6153 7.4359 5.09471 7.03002 4.72843 6.50926C4.36216 5.98851 4.16667 5.37626 4.16667 4.74996C4.16667 3.9101 4.51786 3.10465 5.14298 2.51078C5.7681 1.91692 6.61595 1.58329 7.5 1.58329Z" fill="white"/>
<path d="M7.5 11.0838C5.51155 11.0859 3.60518 11.8373 2.19914 13.173C0.79309 14.5087 0.00220571 16.3198 0 18.2088C0 18.4188 0.0877974 18.6201 0.244078 18.7686C0.400358 18.9171 0.61232 19.0005 0.833333 19.0005C1.05435 19.0005 1.26631 18.9171 1.42259 18.7686C1.57887 18.6201 1.66667 18.4188 1.66667 18.2088C1.66667 16.7391 2.28125 15.3295 3.37521 14.2903C4.46917 13.251 5.9529 12.6671 7.5 12.6671C9.0471 12.6671 10.5308 13.251 11.6248 14.2903C12.7188 15.3295 13.3333 16.7391 13.3333 18.2088C13.3333 18.4188 13.4211 18.6201 13.5774 18.7686C13.7337 18.9171 13.9457 19.0005 14.1667 19.0005C14.3877 19.0005 14.5996 18.9171 14.7559 18.7686C14.9122 18.6201 15 18.4188 15 18.2088C14.9978 16.3198 14.2069 14.5087 12.8009 13.173C11.3948 11.8373 9.48845 11.0859 7.5 11.0838Z" fill="white"/>
</g>
<defs>
<clipPath id="clip0_56_256">
<rect width="20" height="19" fill="white"/>
</clipPath>
</defs>
</svg>
