<svg width="19" height="17" viewBox="0 0 19 17" fill="none" xmlns="http://www.w3.org/2000/svg">
<g clip-path="url(#clip0_56_262)">
<path d="M15.0417 1.41667H14.25V0.708333C14.25 0.520472 14.1666 0.340304 14.0181 0.207466C13.8697 0.0746278 13.6683 0 13.4583 0C13.2484 0 13.047 0.0746278 12.8985 0.207466C12.7501 0.340304 12.6667 0.520472 12.6667 0.708333V1.41667H6.33333V0.708333C6.33333 0.520472 6.24993 0.340304 6.10146 0.207466C5.95299 0.0746278 5.75163 0 5.54167 0C5.3317 0 5.13034 0.0746278 4.98187 0.207466C4.83341 0.340304 4.75 0.520472 4.75 0.708333V1.41667H3.95833C2.9089 1.41779 1.90282 1.79129 1.16076 2.45524C0.418698 3.11919 0.00125705 4.01937 0 4.95833L0 13.4583C0.00125705 14.3973 0.418698 15.2975 1.16076 15.9614C1.90282 16.6254 2.9089 16.9989 3.95833 17H15.0417C16.0911 16.9989 17.0972 16.6254 17.8392 15.9614C18.5813 15.2975 18.9987 14.3973 19 13.4583V4.95833C18.9987 4.01937 18.5813 3.11919 17.8392 2.45524C17.0972 1.79129 16.0911 1.41779 15.0417 1.41667ZM1.58333 4.95833C1.58333 4.39475 1.83356 3.85425 2.27895 3.45573C2.72435 3.05722 3.32844 2.83333 3.95833 2.83333H15.0417C15.6716 2.83333 16.2756 3.05722 16.721 3.45573C17.1664 3.85425 17.4167 4.39475 17.4167 4.95833V5.66667H1.58333V4.95833ZM15.0417 15.5833H3.95833C3.32844 15.5833 2.72435 15.3595 2.27895 14.9609C1.83356 14.5624 1.58333 14.0219 1.58333 13.4583V7.08333H17.4167V13.4583C17.4167 14.0219 17.1664 14.5624 16.721 14.9609C16.2756 15.3595 15.6716 15.5833 15.0417 15.5833Z" fill="white"/>
<path d="M9.5 11.6875C10.1558 11.6875 10.6875 11.2118 10.6875 10.625C10.6875 10.0382 10.1558 9.5625 9.5 9.5625C8.84416 9.5625 8.3125 10.0382 8.3125 10.625C8.3125 11.2118 8.84416 11.6875 9.5 11.6875Z" fill="white"/>
<path d="M5.54199 11.6875C6.19783 11.6875 6.72949 11.2118 6.72949 10.625C6.72949 10.0382 6.19783 9.5625 5.54199 9.5625C4.88615 9.5625 4.35449 10.0382 4.35449 10.625C4.35449 11.2118 4.88615 11.6875 5.54199 11.6875Z" fill="white"/>
<path d="M13.458 11.6875C14.1138 11.6875 14.6455 11.2118 14.6455 10.625C14.6455 10.0382 14.1138 9.5625 13.458 9.5625C12.8022 9.5625 12.2705 10.0382 12.2705 10.625C12.2705 11.2118 12.8022 11.6875 13.458 11.6875Z" fill="white"/>
</g>
<defs>
<clipPath id="clip0_56_262">
<rect width="19" height="17" fill="white"/>
</clipPath>
</defs>
</svg>
